<?xml version="1.0" standalone="no"?>
<!DOCTYPE svg PUBLIC "-//W3C//DTD SVG 20010904//EN"
 "http://www.w3.org/TR/2001/REC-SVG-20010904/DTD/svg10.dtd">
<svg version="1.0" xmlns="http://www.w3.org/2000/svg"
 width="512.000000pt" height="512.000000pt" viewBox="0 0 512.000000 512.000000"
 preserveAspectRatio="xMidYMid meet">
<metadata>
Created by potrace 1.14, written by Peter Selinger 2001-2017
</metadata>
<g transform="translate(0.000000,512.000000) scale(0.100000,-0.100000)"
fill="#000000" stroke="none">
<path d="M2379 5116 c-2 -2 -40 -6 -83 -10 -44 -4 -82 -8 -85 -10 -3 -2 -31
-7 -61 -11 -30 -3 -75 -11 -100 -17 -25 -5 -52 -11 -60 -13 -504 -108 -1017
-416 -1360 -815 -64 -74 -76 -89 -143 -180 -208 -280 -367 -643 -436 -995 -40
-200 -46 -267 -45 -515 0 -183 3 -241 19 -345 3 -16 7 -43 9 -60 54 -385 256
-841 517 -1171 254 -320 604 -593 959 -748 36 -16 79 -35 95 -42 110 -50 389
-127 541 -149 22 -4 50 -8 64 -11 110 -19 470 -26 600 -12 147 17 154 18 250
38 30 6 69 14 85 17 17 3 82 21 145 40 815 247 1451 870 1709 1677 29 89 75
274 86 347 22 142 30 242 30 424 0 217 -11 339 -44 500 -6 28 -13 61 -15 75
-31 156 -115 389 -206 572 -376 754 -1120 1288 -1940 1394 -25 3 -56 8 -70 10
-28 6 -456 15 -461 10z m401 -997 c614 -88 1119 -528 1292 -1124 16 -55 31
-116 34 -135 3 -19 7 -40 9 -47 7 -22 18 -154 19 -242 1 -79 -3 -135 -19 -261
-23 -178 -123 -437 -236 -610 -197 -303 -517 -543 -864 -646 -44 -14 -89 -26
-100 -29 -104 -21 -139 -27 -200 -32 -607 -56 -1178 229 -1498 747 -345 559
-300 1281 111 1800 262 330 686 558 1087 587 44 3 81 7 83 8 6 5 216 -6 282
-16z"/>
<path d="M2448 3935 c-2 -2 -31 -6 -65 -9 -83 -9 -229 -46 -328 -85 -302 -116
-581 -373 -729 -668 -49 -98 -107 -273 -121 -364 -20 -131 -23 -184 -20 -292
8 -268 91 -521 244 -742 65 -95 240 -272 331 -337 97 -68 242 -142 355 -181
55 -19 103 -35 108 -35 4 0 31 -5 60 -11 28 -6 66 -13 82 -16 52 -10 267 -13
340 -4 142 17 207 32 328 76 188 67 342 167 497 323 222 222 349 473 394 780
13 94 14 307 1 385 -37 223 -128 448 -247 610 -62 84 -236 260 -297 301 -240
160 -355 207 -631 260 -33 6 -296 14 -302 9z m270 -210 c68 -8 172 -34 247
-62 347 -130 608 -406 718 -758 57 -182 69 -366 26 -411 -46 -49 -134 -36
-157 23 -6 15 -13 66 -17 113 -36 487 -422 871 -910 906 -91 6 -138 23 -151
53 -14 36 -14 63 1 92 28 54 78 63 243 44z m-412 -53 c50 -40 55 -109 11 -149
-24 -22 -142 -64 -167 -60 -41 8 -62 21 -75 47 -37 71 -5 125 95 161 60 22
110 22 136 1z m444 -247 c10 -6 41 -59 40 -70 0 -3 0 -38 0 -77 l0 -73 86 -44
c95 -48 217 -159 248 -226 24 -49 10 -102 -33 -128 -56 -33 -76 -24 -170 71
-60 61 -103 96 -145 115 -326 154 -690 -60 -702 -413 -7 -197 97 -372 270
-455 209 -99 433 -50 591 130 31 35 67 66 81 69 38 10 87 -10 106 -42 24 -42
15 -86 -31 -146 -57 -74 -118 -123 -218 -177 l-85 -47 0 -78 c1 -93 -20 -138
-68 -149 -84 -18 -130 29 -130 132 l0 63 -35 -3 c-29 -2 -35 -6 -34 -22 6 -81
-2 -117 -30 -146 -40 -39 -97 -41 -135 -3 -14 15 -26 36 -27 48 -1 11 -2 52
-3 90 l-1 69 -71 36 c-39 20 -87 48 -106 63 -124 94 -216 237 -259 398 -16 59
-16 243 0 300 36 134 104 252 193 338 69 66 86 78 173 123 l70 36 1 74 c1 99
8 121 43 142 45 26 88 22 122 -12 28 -29 36 -65 30 -146 -2 -17 4 -21 31 -20
l33 0 6 72 c3 40 12 79 20 89 31 38 94 47 139 19z m-1227 -776 c38 -17 54 -57
61 -154 17 -231 111 -443 266 -605 182 -189 389 -287 645 -306 52 -4 101 -13
117 -22 54 -32 61 -107 13 -152 -20 -19 -37 -24 -82 -24 -102 -2 -214 15 -328
51 -488 153 -833 613 -828 1106 0 77 27 107 100 116 7 0 23 -4 36 -10z m1511
-1018 c31 -33 38 -68 20 -109 -10 -25 -27 -39 -69 -57 -109 -49 -170 -43 -202
18 -32 63 6 125 91 149 22 6 45 15 51 20 20 17 84 5 109 -21z"/>
</g>
</svg>
